<!--
    https://commons.wikimedia.org/wiki/File:Bimetrical_icon_document_2.svg
-->
<svg width="32" height="36" viewBox="0 0 32 36" fill="none" xmlns="http://www.w3.org/2000/svg">
<g clip-path="url(#clip0_107_2)">
<path d="M2.2394 0C1.00322 0 0 1.00322 0 2.2394V29.1121C0 30.3478 1.00322 31.3515 2.2394 31.3515H4.64624V33.9504C4.64624 35.0857 5.56056 36 6.69585 36H29.4716C30.6069 36 31.5212 35.0857 31.5212 33.9504V6.69585C31.5212 5.56057 30.6069 4.64624 29.4716 4.64624H26.875V2.2394C26.875 1.00322 25.869 0 24.6333 0H2.2394ZM12.4585 4.47879H21.2754C21.8932 4.47879 22.3939 4.98179 22.3939 5.5996C22.3939 6.21748 21.8932 6.71819 21.2754 6.71819H12.4585C11.8401 6.71819 11.3376 6.21748 11.3376 5.5996C11.3376 4.98185 11.8401 4.47879 12.4585 4.47879ZM26.875 6.81642H28.5316C28.9857 6.81642 29.3533 7.18171 29.3533 7.63583V33.0104C29.3533 33.4646 28.9857 33.8298 28.5316 33.8298H7.63582C7.18171 33.8298 6.81642 33.4646 6.81642 33.0104V31.3515H24.6333C25.869 31.3515 26.875 30.3477 26.875 29.1121V6.81642ZM5.5996 11.197H21.2754C21.8932 11.197 22.3939 11.7 22.3939 12.3178C22.3939 12.9357 21.8932 13.4364 21.2754 13.4364H5.5996C4.98122 13.4364 4.47879 12.9357 4.47879 12.3178C4.47874 11.7 4.98122 11.197 5.5996 11.197ZM5.5996 17.9152H21.2754C21.8932 17.9152 22.3939 18.4181 22.3939 19.036C22.3939 19.6538 21.8932 20.1546 21.2754 20.1546H5.5996C4.98122 20.1546 4.47879 19.6538 4.47879 19.036C4.47874 18.4182 4.98122 17.9152 5.5996 17.9152ZM5.5996 24.6333H21.2754C21.8932 24.6333 22.3939 25.1364 22.3939 25.7542C22.3939 26.372 21.8932 26.8727 21.2754 26.8727H5.5996C4.98122 26.8727 4.47879 26.372 4.47879 25.7542C4.47874 25.1364 4.98122 24.6333 5.5996 24.6333Z" fill="white"/>
</g>
<defs>
<clipPath id="clip0_107_2">
<rect width="31.5212" height="36" fill="white"/>
</clipPath>
</defs>
</svg>
